<mxfile host="app.diagrams.net" modified="2024-06-02T14:08:01.829Z" agent="Mozilla/5.0 (Macintosh; Intel Mac OS X 10.15; rv:127.0) Gecko/20100101 Firefox/127.0" etag="3QBm8jJrZ6T5GCVexRLO" version="24.4.2" type="device">
  <diagram name="Page-1" id="Xc0LzDCPsX4S6vikhEFc">
    <mxGraphModel dx="1242" dy="714" grid="1" gridSize="10" guides="1" tooltips="1" connect="1" arrows="1" fold="1" page="1" pageScale="1" pageWidth="850" pageHeight="1100" math="0" shadow="0">
      <root>
        <mxCell id="0" />
        <mxCell id="1" parent="0" />
        <mxCell id="M0Bt0SqPXOBvZZ4MV2IT-1" value="AWS Cloud - AI Account" style="points=[[0,0],[0.25,0],[0.5,0],[0.75,0],[1,0],[1,0.25],[1,0.5],[1,0.75],[1,1],[0.75,1],[0.5,1],[0.25,1],[0,1],[0,0.75],[0,0.5],[0,0.25]];outlineConnect=0;gradientColor=none;html=1;whiteSpace=wrap;fontSize=12;fontStyle=0;container=1;pointerEvents=0;collapsible=0;recursiveResize=0;shape=mxgraph.aws4.group;grIcon=mxgraph.aws4.group_aws_cloud_alt;strokeColor=#232F3E;fillColor=none;verticalAlign=top;align=left;spacingLeft=30;fontColor=#232F3E;dashed=0;" vertex="1" parent="1">
          <mxGeometry x="30" y="90" width="1060" height="550" as="geometry" />
        </mxCell>
        <mxCell id="M0Bt0SqPXOBvZZ4MV2IT-2" value="AWS Step Functions workflow" style="points=[[0,0],[0.25,0],[0.5,0],[0.75,0],[1,0],[1,0.25],[1,0.5],[1,0.75],[1,1],[0.75,1],[0.5,1],[0.25,1],[0,1],[0,0.75],[0,0.5],[0,0.25]];outlineConnect=0;gradientColor=none;html=1;whiteSpace=wrap;fontSize=12;fontStyle=0;container=1;pointerEvents=0;collapsible=0;recursiveResize=0;shape=mxgraph.aws4.group;grIcon=mxgraph.aws4.group_aws_step_functions_workflow;strokeColor=#CD2264;fillColor=none;verticalAlign=top;align=left;spacingLeft=30;fontColor=#CD2264;dashed=0;" vertex="1" parent="M0Bt0SqPXOBvZZ4MV2IT-1">
          <mxGeometry x="250" y="34" width="780" height="476" as="geometry" />
        </mxCell>
        <mxCell id="M0Bt0SqPXOBvZZ4MV2IT-8" value="File Extension Finder" style="sketch=0;points=[[0,0,0],[0.25,0,0],[0.5,0,0],[0.75,0,0],[1,0,0],[0,1,0],[0.25,1,0],[0.5,1,0],[0.75,1,0],[1,1,0],[0,0.25,0],[0,0.5,0],[0,0.75,0],[1,0.25,0],[1,0.5,0],[1,0.75,0]];outlineConnect=0;fontColor=#232F3E;fillColor=#ED7100;strokeColor=#ffffff;dashed=0;verticalLabelPosition=bottom;verticalAlign=top;align=center;html=1;fontSize=12;fontStyle=0;aspect=fixed;shape=mxgraph.aws4.resourceIcon;resIcon=mxgraph.aws4.lambda;" vertex="1" parent="M0Bt0SqPXOBvZZ4MV2IT-2">
          <mxGeometry x="30" y="58" width="78" height="78" as="geometry" />
        </mxCell>
        <mxCell id="M0Bt0SqPXOBvZZ4MV2IT-9" value="HTML Loader" style="sketch=0;points=[[0,0,0],[0.25,0,0],[0.5,0,0],[0.75,0,0],[1,0,0],[0,1,0],[0.25,1,0],[0.5,1,0],[0.75,1,0],[1,1,0],[0,0.25,0],[0,0.5,0],[0,0.75,0],[1,0.25,0],[1,0.5,0],[1,0.75,0]];outlineConnect=0;fontColor=#232F3E;fillColor=#ED7100;strokeColor=#ffffff;dashed=0;verticalLabelPosition=bottom;verticalAlign=top;align=center;html=1;fontSize=12;fontStyle=0;aspect=fixed;shape=mxgraph.aws4.resourceIcon;resIcon=mxgraph.aws4.lambda;" vertex="1" parent="M0Bt0SqPXOBvZZ4MV2IT-2">
          <mxGeometry x="40" y="216" width="78" height="78" as="geometry" />
        </mxCell>
        <mxCell id="M0Bt0SqPXOBvZZ4MV2IT-21" style="edgeStyle=orthogonalEdgeStyle;rounded=0;orthogonalLoop=1;jettySize=auto;html=1;exitX=1;exitY=0.5;exitDx=0;exitDy=0;" edge="1" parent="M0Bt0SqPXOBvZZ4MV2IT-2" source="M0Bt0SqPXOBvZZ4MV2IT-11" target="M0Bt0SqPXOBvZZ4MV2IT-15">
          <mxGeometry relative="1" as="geometry" />
        </mxCell>
        <mxCell id="M0Bt0SqPXOBvZZ4MV2IT-22" value="Docx extension" style="edgeLabel;html=1;align=center;verticalAlign=middle;resizable=0;points=[];" vertex="1" connectable="0" parent="M0Bt0SqPXOBvZZ4MV2IT-21">
          <mxGeometry x="-0.25" y="-3" relative="1" as="geometry">
            <mxPoint as="offset" />
          </mxGeometry>
        </mxCell>
        <mxCell id="M0Bt0SqPXOBvZZ4MV2IT-49" style="edgeStyle=orthogonalEdgeStyle;rounded=0;orthogonalLoop=1;jettySize=auto;html=1;exitX=0.5;exitY=0;exitDx=0;exitDy=0;" edge="1" parent="M0Bt0SqPXOBvZZ4MV2IT-2">
          <mxGeometry relative="1" as="geometry">
            <mxPoint x="205" y="86" as="sourcePoint" />
            <mxPoint x="620" y="66" as="targetPoint" />
            <Array as="points">
              <mxPoint x="205" y="66" />
            </Array>
          </mxGeometry>
        </mxCell>
        <mxCell id="M0Bt0SqPXOBvZZ4MV2IT-50" value="Unsupported File Tyle" style="edgeLabel;html=1;align=center;verticalAlign=bottom;resizable=0;points=[];labelPosition=center;verticalLabelPosition=top;" vertex="1" connectable="0" parent="M0Bt0SqPXOBvZZ4MV2IT-49">
          <mxGeometry x="0.6048" y="-2" relative="1" as="geometry">
            <mxPoint as="offset" />
          </mxGeometry>
        </mxCell>
        <mxCell id="M0Bt0SqPXOBvZZ4MV2IT-11" value="Choice" style="rhombus;" vertex="1" parent="M0Bt0SqPXOBvZZ4MV2IT-2">
          <mxGeometry x="160" y="66" width="90" height="58" as="geometry" />
        </mxCell>
        <mxCell id="M0Bt0SqPXOBvZZ4MV2IT-12" style="edgeStyle=orthogonalEdgeStyle;rounded=0;orthogonalLoop=1;jettySize=auto;html=1;exitX=1;exitY=0.5;exitDx=0;exitDy=0;exitPerimeter=0;entryX=0.089;entryY=0.534;entryDx=0;entryDy=0;entryPerimeter=0;" edge="1" parent="M0Bt0SqPXOBvZZ4MV2IT-2" source="M0Bt0SqPXOBvZZ4MV2IT-8" target="M0Bt0SqPXOBvZZ4MV2IT-11">
          <mxGeometry relative="1" as="geometry" />
        </mxCell>
        <mxCell id="M0Bt0SqPXOBvZZ4MV2IT-13" value="PDF Loader" style="sketch=0;points=[[0,0,0],[0.25,0,0],[0.5,0,0],[0.75,0,0],[1,0,0],[0,1,0],[0.25,1,0],[0.5,1,0],[0.75,1,0],[1,1,0],[0,0.25,0],[0,0.5,0],[0,0.75,0],[1,0.25,0],[1,0.5,0],[1,0.75,0]];outlineConnect=0;fontColor=#232F3E;fillColor=#ED7100;strokeColor=#ffffff;dashed=0;verticalLabelPosition=bottom;verticalAlign=top;align=center;html=1;fontSize=12;fontStyle=0;aspect=fixed;shape=mxgraph.aws4.resourceIcon;resIcon=mxgraph.aws4.lambda;" vertex="1" parent="M0Bt0SqPXOBvZZ4MV2IT-2">
          <mxGeometry x="230" y="216" width="78" height="78" as="geometry" />
        </mxCell>
        <mxCell id="M0Bt0SqPXOBvZZ4MV2IT-15" value="Docx Loader" style="sketch=0;points=[[0,0,0],[0.25,0,0],[0.5,0,0],[0.75,0,0],[1,0,0],[0,1,0],[0.25,1,0],[0.5,1,0],[0.75,1,0],[1,1,0],[0,0.25,0],[0,0.5,0],[0,0.75,0],[1,0.25,0],[1,0.5,0],[1,0.75,0]];outlineConnect=0;fontColor=#232F3E;fillColor=#ED7100;strokeColor=#ffffff;dashed=0;verticalLabelPosition=bottom;verticalAlign=top;align=center;html=1;fontSize=12;fontStyle=0;aspect=fixed;shape=mxgraph.aws4.resourceIcon;resIcon=mxgraph.aws4.lambda;" vertex="1" parent="M0Bt0SqPXOBvZZ4MV2IT-2">
          <mxGeometry x="370" y="216" width="78" height="78" as="geometry" />
        </mxCell>
        <mxCell id="M0Bt0SqPXOBvZZ4MV2IT-17" style="edgeStyle=orthogonalEdgeStyle;rounded=0;orthogonalLoop=1;jettySize=auto;html=1;exitX=0;exitY=1;exitDx=0;exitDy=0;entryX=0.5;entryY=0;entryDx=0;entryDy=0;entryPerimeter=0;" edge="1" parent="M0Bt0SqPXOBvZZ4MV2IT-2" source="M0Bt0SqPXOBvZZ4MV2IT-11" target="M0Bt0SqPXOBvZZ4MV2IT-9">
          <mxGeometry relative="1" as="geometry">
            <Array as="points">
              <mxPoint x="183" y="176" />
              <mxPoint x="79" y="176" />
            </Array>
          </mxGeometry>
        </mxCell>
        <mxCell id="M0Bt0SqPXOBvZZ4MV2IT-18" value="HTML extension" style="edgeLabel;html=1;align=center;verticalAlign=middle;resizable=0;points=[];" vertex="1" connectable="0" parent="M0Bt0SqPXOBvZZ4MV2IT-17">
          <mxGeometry x="-0.0095" y="-2" relative="1" as="geometry">
            <mxPoint as="offset" />
          </mxGeometry>
        </mxCell>
        <mxCell id="M0Bt0SqPXOBvZZ4MV2IT-19" style="edgeStyle=orthogonalEdgeStyle;rounded=0;orthogonalLoop=1;jettySize=auto;html=1;exitX=0.5;exitY=1;exitDx=0;exitDy=0;entryX=0.5;entryY=0;entryDx=0;entryDy=0;entryPerimeter=0;" edge="1" parent="M0Bt0SqPXOBvZZ4MV2IT-2" source="M0Bt0SqPXOBvZZ4MV2IT-11" target="M0Bt0SqPXOBvZZ4MV2IT-13">
          <mxGeometry relative="1" as="geometry" />
        </mxCell>
        <mxCell id="M0Bt0SqPXOBvZZ4MV2IT-20" value="PDF extension" style="edgeLabel;html=1;align=center;verticalAlign=middle;resizable=0;points=[];" vertex="1" connectable="0" parent="M0Bt0SqPXOBvZZ4MV2IT-19">
          <mxGeometry x="0.0161" y="-2" relative="1" as="geometry">
            <mxPoint as="offset" />
          </mxGeometry>
        </mxCell>
        <mxCell id="M0Bt0SqPXOBvZZ4MV2IT-23" value="Pinecone Embedding Creation" style="sketch=0;points=[[0,0,0],[0.25,0,0],[0.5,0,0],[0.75,0,0],[1,0,0],[0,1,0],[0.25,1,0],[0.5,1,0],[0.75,1,0],[1,1,0],[0,0.25,0],[0,0.5,0],[0,0.75,0],[1,0.25,0],[1,0.5,0],[1,0.75,0]];outlineConnect=0;fontColor=#232F3E;fillColor=#ED7100;strokeColor=#ffffff;dashed=0;verticalLabelPosition=bottom;verticalAlign=top;align=center;html=1;fontSize=12;fontStyle=0;aspect=fixed;shape=mxgraph.aws4.resourceIcon;resIcon=mxgraph.aws4.lambda;" vertex="1" parent="M0Bt0SqPXOBvZZ4MV2IT-2">
          <mxGeometry x="230" y="356" width="78" height="78" as="geometry" />
        </mxCell>
        <mxCell id="M0Bt0SqPXOBvZZ4MV2IT-24" style="edgeStyle=orthogonalEdgeStyle;rounded=0;orthogonalLoop=1;jettySize=auto;html=1;exitX=1;exitY=0.5;exitDx=0;exitDy=0;exitPerimeter=0;entryX=0;entryY=0.5;entryDx=0;entryDy=0;entryPerimeter=0;" edge="1" parent="M0Bt0SqPXOBvZZ4MV2IT-2" source="M0Bt0SqPXOBvZZ4MV2IT-9" target="M0Bt0SqPXOBvZZ4MV2IT-23">
          <mxGeometry relative="1" as="geometry" />
        </mxCell>
        <mxCell id="M0Bt0SqPXOBvZZ4MV2IT-25" style="edgeStyle=orthogonalEdgeStyle;rounded=0;orthogonalLoop=1;jettySize=auto;html=1;exitX=0;exitY=0.5;exitDx=0;exitDy=0;exitPerimeter=0;entryX=0;entryY=0.25;entryDx=0;entryDy=0;entryPerimeter=0;" edge="1" parent="M0Bt0SqPXOBvZZ4MV2IT-2" source="M0Bt0SqPXOBvZZ4MV2IT-13" target="M0Bt0SqPXOBvZZ4MV2IT-23">
          <mxGeometry relative="1" as="geometry" />
        </mxCell>
        <mxCell id="M0Bt0SqPXOBvZZ4MV2IT-26" style="edgeStyle=orthogonalEdgeStyle;rounded=0;orthogonalLoop=1;jettySize=auto;html=1;exitX=0;exitY=0.5;exitDx=0;exitDy=0;exitPerimeter=0;entryX=1;entryY=0.5;entryDx=0;entryDy=0;entryPerimeter=0;" edge="1" parent="M0Bt0SqPXOBvZZ4MV2IT-2" source="M0Bt0SqPXOBvZZ4MV2IT-15" target="M0Bt0SqPXOBvZZ4MV2IT-23">
          <mxGeometry relative="1" as="geometry" />
        </mxCell>
        <mxCell id="M0Bt0SqPXOBvZZ4MV2IT-48" value="SNS Failure Topic Tyle" style="sketch=0;outlineConnect=0;fontColor=#232F3E;gradientColor=none;strokeColor=#ffffff;fillColor=#232F3E;dashed=0;verticalLabelPosition=middle;verticalAlign=bottom;align=center;html=1;whiteSpace=wrap;fontSize=10;fontStyle=1;spacing=3;shape=mxgraph.aws4.productIcon;prIcon=mxgraph.aws4.sns;" vertex="1" parent="M0Bt0SqPXOBvZZ4MV2IT-2">
          <mxGeometry x="620" y="26" width="90" height="124" as="geometry" />
        </mxCell>
        <mxCell id="M0Bt0SqPXOBvZZ4MV2IT-51" value="&lt;div&gt;Parameter Store&lt;/div&gt;&lt;div&gt;/prod/rag-pipleine/*&lt;br&gt;&lt;/div&gt;" style="outlineConnect=0;dashed=0;verticalLabelPosition=bottom;verticalAlign=top;align=center;html=1;shape=mxgraph.aws3.parameter_store;fillColor=#759C3E;gradientColor=none;" vertex="1" parent="M0Bt0SqPXOBvZZ4MV2IT-2">
          <mxGeometry x="635" y="176" width="75" height="102" as="geometry" />
        </mxCell>
        <mxCell id="M0Bt0SqPXOBvZZ4MV2IT-7" style="edgeStyle=orthogonalEdgeStyle;rounded=0;orthogonalLoop=1;jettySize=auto;html=1;exitX=1;exitY=0.5;exitDx=0;exitDy=0;exitPerimeter=0;entryX=0;entryY=0.5;entryDx=0;entryDy=0;" edge="1" parent="M0Bt0SqPXOBvZZ4MV2IT-1" source="M0Bt0SqPXOBvZZ4MV2IT-4" target="M0Bt0SqPXOBvZZ4MV2IT-2">
          <mxGeometry relative="1" as="geometry" />
        </mxCell>
        <mxCell id="M0Bt0SqPXOBvZZ4MV2IT-4" value="Event Brdige" style="sketch=0;points=[[0,0,0],[0.25,0,0],[0.5,0,0],[0.75,0,0],[1,0,0],[0,1,0],[0.25,1,0],[0.5,1,0],[0.75,1,0],[1,1,0],[0,0.25,0],[0,0.5,0],[0,0.75,0],[1,0.25,0],[1,0.5,0],[1,0.75,0]];outlineConnect=0;fontColor=#232F3E;fillColor=#E7157B;strokeColor=#ffffff;dashed=0;verticalLabelPosition=top;verticalAlign=bottom;align=center;html=1;fontSize=12;fontStyle=0;aspect=fixed;shape=mxgraph.aws4.resourceIcon;resIcon=mxgraph.aws4.eventbridge;labelPosition=center;" vertex="1" parent="M0Bt0SqPXOBvZZ4MV2IT-1">
          <mxGeometry x="100" y="170" width="78" height="78" as="geometry" />
        </mxCell>
        <mxCell id="M0Bt0SqPXOBvZZ4MV2IT-6" value="" style="edgeStyle=orthogonalEdgeStyle;rounded=0;orthogonalLoop=1;jettySize=auto;html=1;" edge="1" parent="M0Bt0SqPXOBvZZ4MV2IT-1" source="M0Bt0SqPXOBvZZ4MV2IT-5" target="M0Bt0SqPXOBvZZ4MV2IT-4">
          <mxGeometry relative="1" as="geometry" />
        </mxCell>
        <mxCell id="M0Bt0SqPXOBvZZ4MV2IT-5" value="Documents" style="sketch=0;outlineConnect=0;fontColor=#232F3E;gradientColor=none;strokeColor=#ffffff;fillColor=#232F3E;dashed=0;verticalLabelPosition=middle;verticalAlign=bottom;align=center;html=1;whiteSpace=wrap;fontSize=10;fontStyle=1;spacing=3;shape=mxgraph.aws4.productIcon;prIcon=mxgraph.aws4.s3;" vertex="1" parent="M0Bt0SqPXOBvZZ4MV2IT-1">
          <mxGeometry x="99" y="310" width="80" height="100" as="geometry" />
        </mxCell>
      </root>
    </mxGraphModel>
  </diagram>
</mxfile>
